<?xml version="1.0" encoding="UTF-8" standalone="no"?>
<svg
   xmlns:dc="http://purl.org/dc/elements/1.1/"
   xmlns:cc="http://creativecommons.org/ns#"
   xmlns:rdf="http://www.w3.org/1999/02/22-rdf-syntax-ns#"
   xmlns:svg="http://www.w3.org/2000/svg"
   xmlns="http://www.w3.org/2000/svg"
   xmlns:sodipodi="http://sodipodi.sourceforge.net/DTD/sodipodi-0.dtd"
   xmlns:inkscape="http://www.inkscape.org/namespaces/inkscape"
   width="22.999962"
   height="22.999994"
   viewBox="0 0 22.999962 22.999994"
   fill="none"
   version="1.1"
   id="svg53"
   sodipodi:docname="icon_setting_active.svg"
   inkscape:version="1.0.1 (3bc2e813f5, 2020-09-07)">
  <metadata
     id="metadata57">
    <rdf:RDF>
      <cc:Work
         rdf:about="">
        <dc:format>image/svg+xml</dc:format>
        <dc:type
           rdf:resource="http://purl.org/dc/dcmitype/StillImage" />
        <dc:title />
      </cc:Work>
    </rdf:RDF>
  </metadata>
  <sodipodi:namedview
     pagecolor="#ffffff"
     bordercolor="#666666"
     borderopacity="1"
     objecttolerance="10"
     gridtolerance="10"
     guidetolerance="10"
     inkscape:pageopacity="0"
     inkscape:pageshadow="2"
     inkscape:window-width="1920"
     inkscape:window-height="1057"
     id="namedview55"
     showgrid="false"
     fit-margin-top="0"
     fit-margin-left="0"
     fit-margin-right="0"
     fit-margin-bottom="0"
     inkscape:zoom="3.2777346"
     inkscape:cx="-41.979919"
     inkscape:cy="14.746628"
     inkscape:window-x="-8"
     inkscape:window-y="-8"
     inkscape:window-maximized="1"
     inkscape:current-layer="svg53"
     inkscape:document-rotation="0" />
  <path
     d="m 9.8536607,0.6137803 c 0.0864,-0.0734 0.1961003,-0.11372 0.3095003,-0.11378 h 2.6306 c 0.1127,-1.26e-4 0.2219,0.03954 0.3082,0.11199 0.0863,0.07246 0.1442,0.17306 0.1636,0.28407 l 0.5007,2.86209 c 0.5603,0.16524 1.0929,0.3885 1.5947,0.66415 l 2.355,-1.69353 c 0.0921,-0.06633 0.2048,-0.09776 0.3179,-0.08869 0.1131,0.0091 0.2193,0.05805 0.2996,0.1382 l 1.8609,1.8598 c 0.0796,0.07957 0.1285,0.18462 0.1382,0.29669 0.01,0.11207 -0.0203,0.22399 -0.0849,0.31608 l -1.6778,2.39037 c 0.2722,0.49887 0.4919,1.02691 0.6558,1.58144 l 2.8735,0.46984 c 0.1119,0.0184 0.2136,0.0759 0.287,0.1623 0.0734,0.0864 0.1137,0.1960997 0.1138,0.3093997 v 2.6305 c 2e-4,0.1125 -0.0394,0.2215 -0.1116,0.3078 -0.0723,0.0863 -0.1727,0.1443 -0.2836,0.1639 l -2.8782,0.5044 c -0.1628,0.5552 -0.3819,1.0842 -0.6539,1.5833 l 1.7011,2.361403 c 0.0664,0.0921 0.0978,0.20469 0.0887,0.31779 -0.009,0.1131 -0.058,0.2193 -0.1382,0.2997 l -1.8599,1.8616 c -0.0796,0.0795 -0.1847,0.1285 -0.2967,0.1382 -0.1121,0.01 -0.224,-0.0203 -0.3162,-0.0849 l -2.3859,-1.6739 c -0.5015,0.2767 -1.0338,0.5012 -1.5927,0.6678 l -0.5073,2.8631 c -0.0196,0.1108 -0.0776,0.2112 -0.1639,0.2835 -0.0863,0.0722 -0.1953,0.1118 -0.3079,0.1116 h -2.6306 c -0.1133,0 -0.2228003,-0.0402 -0.3092003,-0.1134 -0.0864,-0.0732 -0.144,-0.1747 -0.1626,-0.2864 l -0.4736099,-2.8518 c -0.5613,-0.1642 -1.09603,-0.3853 -1.60025,-0.6604 l -2.37002,1.6589 c -0.0921,0.0643 -0.20392,0.094 -0.31579,0.0841 -0.11188,-0.01 -0.2167,-0.0588 -0.2961,-0.1382 l -1.85996,-1.8608 c -0.0798,-0.0801 -0.12868,-0.1858 -0.13791,-0.2985 -0.009,-0.1127 0.0217,-0.22499 0.0875,-0.31699 l 1.67406,-2.341803 c -0.27817,-0.5063 -0.50118,-1.043 -0.66701,-1.6067 L 0.89423076,13.2655 c -0.11068,-0.0198 -0.21085,-0.0779 -0.28294,-0.1642 -0.0721,-0.0863 -0.11149005,-0.1952 -0.11129,-0.3076 v -2.6304 c -1e-5,-0.1131 0.04,-0.2224997 0.11308,-0.3088997 0.073,-0.0863 0.17429,-0.144 0.28582,-0.1628 l 2.83617004,-0.47175 c 0.16673,-0.56463 0.39117,-1.10102 0.66888,-1.60665 l -1.6535,-2.36515 c -0.0646,-0.0921 -0.0947,-0.20401 -0.0849,-0.31608 0.01,-0.11207 0.0587,-0.21712 0.13819,-0.29669 l 1.8609,-1.85887 c 0.0801,-0.07981 0.18588,-0.12866 0.29858,-0.1379 0.11269,-0.0092 0.22502,0.02175 0.31704,0.08746 l 2.35041,1.67858 c 0.50273,-0.27346 1.03617,-0.49302 1.59558,-0.65574 l 0.4651999,-2.84808 c 0.0184,-0.11186 0.0759,-0.21356 0.1623,-0.28695 z"
     stroke="#a6aab4"
     id="path14"
     style="stroke:#2dc2af;stroke-opacity:1" />
  <defs
     id="defs51">
    <filter
       id="filter0_d"
       x="-336"
       y="-68"
       width="395"
       height="112"
       filterUnits="userSpaceOnUse"
       color-interpolation-filters="sRGB">
      <feFlood
         flood-opacity="0"
         result="BackgroundImageFix"
         id="feFlood18" />
      <feColorMatrix
         in="SourceAlpha"
         type="matrix"
         values="0 0 0 0 0 0 0 0 0 0 0 0 0 0 0 0 0 0 127 0"
         result="hardAlpha"
         id="feColorMatrix20" />
      <feOffset
         dy="4"
         id="feOffset22" />
      <feGaussianBlur
         stdDeviation="13"
         id="feGaussianBlur24" />
      <feColorMatrix
         type="matrix"
         values="0 0 0 0 0 0 0 0 0 0 0 0 0 0 0 0 0 0 0.06 0"
         id="feColorMatrix26" />
      <feBlend
         mode="normal"
         in2="BackgroundImageFix"
         result="effect1_dropShadow"
         id="feBlend28" />
      <feBlend
         mode="normal"
         in="SourceGraphic"
         in2="effect1_dropShadow"
         result="shape"
         id="feBlend30" />
    </filter>
    <filter
       id="filter1_d"
       x="-340"
       y="-32"
       width="403"
       height="112"
       filterUnits="userSpaceOnUse"
       color-interpolation-filters="sRGB">
      <feFlood
         flood-opacity="0"
         result="BackgroundImageFix"
         id="feFlood33" />
      <feColorMatrix
         in="SourceAlpha"
         type="matrix"
         values="0 0 0 0 0 0 0 0 0 0 0 0 0 0 0 0 0 0 127 0"
         result="hardAlpha"
         id="feColorMatrix35" />
      <feOffset
         dy="-4"
         id="feOffset37" />
      <feGaussianBlur
         stdDeviation="7"
         id="feGaussianBlur39" />
      <feColorMatrix
         type="matrix"
         values="0 0 0 0 0 0 0 0 0 0 0 0 0 0 0 0 0 0 0.06 0"
         id="feColorMatrix41" />
      <feBlend
         mode="normal"
         in2="BackgroundImageFix"
         result="effect1_dropShadow"
         id="feBlend43" />
      <feBlend
         mode="normal"
         in="SourceGraphic"
         in2="effect1_dropShadow"
         result="shape"
         id="feBlend45" />
    </filter>
    <clipPath
       id="clip0">
      <rect
         width="375"
         height="812"
         fill="#ffffff"
         transform="translate(-326,-742)"
         id="rect48"
         x="0"
         y="0" />
    </clipPath>
  </defs>
  <circle
     style="fill:none;stroke:#2dc2af;stroke-width:1;stroke-linecap:round;stroke-linejoin:round;stroke-miterlimit:4;stroke-dasharray:none;stroke-opacity:1"
     id="path888"
     cx="11.499981"
     cy="11.499998"
     r="3.1271598" />
</svg>
