<?xml version="1.0" encoding="UTF-8" standalone="no"?>
<svg
   xmlns:dc="http://purl.org/dc/elements/1.1/"
   xmlns:cc="http://creativecommons.org/ns#"
   xmlns:rdf="http://www.w3.org/1999/02/22-rdf-syntax-ns#"
   xmlns:svg="http://www.w3.org/2000/svg"
   xmlns="http://www.w3.org/2000/svg"
   xmlns:sodipodi="http://sodipodi.sourceforge.net/DTD/sodipodi-0.dtd"
   xmlns:inkscape="http://www.inkscape.org/namespaces/inkscape"
   width="22"
   height="22.023911"
   viewBox="0 0 22 22.023911"
   fill="none"
   version="1.1"
   id="svg63"
   sodipodi:docname="icon_report.svg"
   inkscape:version="1.0.1 (3bc2e813f5, 2020-09-07)">
  <metadata
     id="metadata67">
    <rdf:RDF>
      <cc:Work
         rdf:about="">
        <dc:format>image/svg+xml</dc:format>
        <dc:type
           rdf:resource="http://purl.org/dc/dcmitype/StillImage" />
        <dc:title></dc:title>
      </cc:Work>
    </rdf:RDF>
  </metadata>
  <sodipodi:namedview
     pagecolor="#ffffff"
     bordercolor="#666666"
     borderopacity="1"
     objecttolerance="10"
     gridtolerance="10"
     guidetolerance="10"
     inkscape:pageopacity="0"
     inkscape:pageshadow="2"
     inkscape:window-width="1920"
     inkscape:window-height="1057"
     id="namedview65"
     showgrid="false"
     fit-margin-top="0"
     fit-margin-left="0"
     fit-margin-right="0"
     fit-margin-bottom="0"
     inkscape:zoom="1.7101224"
     inkscape:cx="-88.358711"
     inkscape:cy="-47.29424"
     inkscape:window-x="-8"
     inkscape:window-y="-8"
     inkscape:window-maximized="1"
     inkscape:current-layer="svg63" />
  <path
     d="m 0.5,12 c 0,5.4782 1.1238,7.7249 2.69291,8.7004 0.80302,0.4992 1.78464,0.7091 2.94722,0.785 0.80109,0.0524 1.64564,0.0401 2.5503,0.027 C 9.11325,21.5064 9.54921,21.5 10,21.5 c 0.4508,0 0.8868,0.006 1.3096,0.0124 0.9046,0.0131 1.7492,0.0254 2.5503,-0.027 1.1626,-0.0759 2.1442,-0.2858 2.9472,-0.785 C 18.3762,19.7249 19.5,17.4782 19.5,12 19.5,6.52183 18.3762,4.2751 16.8071,3.29963 16.0041,2.80042 15.0225,2.59048 13.8599,2.51456 13.0588,2.46226 12.2142,2.47446 11.3096,2.48756 10.8868,2.49356 10.4508,2.49996 10,2.49996 9.54921,2.49996 9.11325,2.49396 8.69043,2.48756 7.78577,2.47446 6.94122,2.46226 6.14013,2.51456 4.97755,2.59046 3.99593,2.80041 3.19291,3.29963 1.6238,4.2751 0.5,6.52183 0.5,11.99999 Z"
     fill="#ffffff"
     stroke="#a6aab4"
     id="path14" />
  <path
     d="M 4,13 H 16"
     stroke="#a6aab4"
     id="path16" />
  <path
     d="M 4,17.5 H 16"
     stroke="#a6aab4"
     id="path18" />
  <path
     d="M 22,12 C 22,10.4241 21.6896,8.8637 21.0866,7.40779 20.4835,5.95188 19.5996,4.62901 18.4853,3.51471 17.371,2.40041 16.0481,1.51649 14.5922,0.91344 13.1363,0.31038 11.5758,-9.9997584e-6 9.99998,0 L 10,12 Z"
     fill="#ffffff"
     id="path20" />
  <path
     d="M 19.4807,8.5 C 19.4281,7.81763 19.2679,7.14678 19.0052,6.51255 18.6786,5.72394 18.1998,5.00738 17.5962,4.4038 16.9926,3.80022 16.2761,3.32143 15.4874,2.99478 14.8532,2.73207 14.1824,2.5719 13.5,2.51926 V 8.5 Z"
     fill="#ffffff"
     stroke="#a6aab4"
     id="path22" />
  <path
     d="m 4,8.5 h 7.5"
     stroke="#a6aab4"
     id="path24" />
  <defs
     id="defs61">
    <filter
       id="filter0_d"
       x="-236"
       y="-68"
       width="395"
       height="112"
       filterUnits="userSpaceOnUse"
       color-interpolation-filters="sRGB">
      <feFlood
         flood-opacity="0"
         result="BackgroundImageFix"
         id="feFlood28" />
      <feColorMatrix
         in="SourceAlpha"
         type="matrix"
         values="0 0 0 0 0 0 0 0 0 0 0 0 0 0 0 0 0 0 127 0"
         result="hardAlpha"
         id="feColorMatrix30" />
      <feOffset
         dy="4"
         id="feOffset32" />
      <feGaussianBlur
         stdDeviation="13"
         id="feGaussianBlur34" />
      <feColorMatrix
         type="matrix"
         values="0 0 0 0 0 0 0 0 0 0 0 0 0 0 0 0 0 0 0.06 0"
         id="feColorMatrix36" />
      <feBlend
         mode="normal"
         in2="BackgroundImageFix"
         result="effect1_dropShadow"
         id="feBlend38" />
      <feBlend
         mode="normal"
         in="SourceGraphic"
         in2="effect1_dropShadow"
         result="shape"
         id="feBlend40" />
    </filter>
    <filter
       id="filter1_d"
       x="-240"
       y="-32"
       width="403"
       height="112"
       filterUnits="userSpaceOnUse"
       color-interpolation-filters="sRGB">
      <feFlood
         flood-opacity="0"
         result="BackgroundImageFix"
         id="feFlood43" />
      <feColorMatrix
         in="SourceAlpha"
         type="matrix"
         values="0 0 0 0 0 0 0 0 0 0 0 0 0 0 0 0 0 0 127 0"
         result="hardAlpha"
         id="feColorMatrix45" />
      <feOffset
         dy="-4"
         id="feOffset47" />
      <feGaussianBlur
         stdDeviation="7"
         id="feGaussianBlur49" />
      <feColorMatrix
         type="matrix"
         values="0 0 0 0 0 0 0 0 0 0 0 0 0 0 0 0 0 0 0.06 0"
         id="feColorMatrix51" />
      <feBlend
         mode="normal"
         in2="BackgroundImageFix"
         result="effect1_dropShadow"
         id="feBlend53" />
      <feBlend
         mode="normal"
         in="SourceGraphic"
         in2="effect1_dropShadow"
         result="shape"
         id="feBlend55" />
    </filter>
    <clipPath
       id="clip0">
      <rect
         width="375"
         height="812"
         fill="#ffffff"
         transform="translate(-226,-742)"
         id="rect58"
         x="0"
         y="0" />
    </clipPath>
  </defs>
</svg>
